{"title":"True.Blood.S05E11.HDTV.DivX-Atilla82","uid":7550233,"size":449291289,"categoryP":"video","categoryS":"tv_shows","magnet":"?xt=urn:btih:b505a0f8d24a001ca6bbc4bb8194ed58e1e5f84f&amp;dn=True.Blood.S05E11.HDTV.DivX-Atilla82&amp;tr=udp%3A%2F%2Ftracker.openbittorrent.com%3A80&amp;tr=udp%3A%2F%2Fopen.demonii.com%3A1337&amp;tr=udp%3A%2F%2Ftracker.coppersurfer.tk%3A6969&amp;tr=udp%3A%2F%2Fexodus.desync.com%3A6969","seeders":0,"leechers":0,"uploader":"Atilla82","files":2,"time":1345422284,"description":"True Blood S05E11 HDTV DivX-Atilla82\n\n &lt;a href=&quot;\nhttp://www.imdb.com/title/tt0844441/&quot; rel=&quot;nofollow&quot; target=&quot;_NEW&quot;&gt;\nhttp://www.imdb.com/title/tt0844441/&lt;/a&gt;\n\n\nIn a world where vampires have &quot;come out of the coffin&quot;, Sookie Stackhouse, a telepathic waitress, discovers a new world of different creatures when she meets Bill Compton, a vampire. \n\nlanguage: English\n\n\nGeneral\nComplete name : True.Blood.S05E11.HDTV.DivX-Atilla82.avi\nFormat : AVI\nFormat/Info : Audio Video Interleave\nFile size : 428 MiB\nDuration : 51mn 36s\nOverall bit rate : 1 161 Kbps\nWriting application : VirtualDubMod 1.5.10.2 (build 2540/release)\nWriting library : VirtualDubMod build 2540/release\n\nVideo\nID : 0\nFormat : MPEG-4 Visual\nFormat settings, BVOP : 1\nFormat settings, QPel : No\nFormat settings, GMC : No warppoints\nFormat settings, Matrix : Default (H.263)\nMuxing mode : Packed bitstream\nCodec ID : DX50\nCodec ID/Hint : DivX 5\nDuration : 51mn 36s\nBit rate : 1 023 Kbps\nWidth : 680 pixels\nHeight : 384 pixels\nDisplay aspect ratio : 16:9\nFrame rate : 23.976 fps\nColor space : YUV\nChroma subsampling : 4:2:0\nBit depth : 8 bits\nScan type : Progressive\nCompression mode : Lossy\nBits/(Pixel*Frame) : 0.163\nStream size : 378 MiB (88%)\nWriting library : DivX 3330\n\nAudio\nID : 1\nFormat : MPEG Audio\nFormat version : Version 1\nFormat profile : Layer 3\nCodec ID : 55\nCodec ID/Hint : MP3\nDuration : 51mn 36s\nBit rate mode : Constant\nBit rate : 128 Kbps\nChannel(s) : 2 channels\nSampling rate : 48.0 KHz\nCompression mode : Lossy\nStream size : 47.2 MiB (11%)\nAlignment : Aligned on interleaves\nInterleave, duration : 42 ms (1.00 video frame)\nInterleave, preload duration : 504 ms\nWriting library : LAME3.98.4\n\n\nSCREENSHOTS &lt;a href=&quot;\nhttp://www.pohrani.com/f/39/rn/38bFtB9x/screens.jpg&quot; rel=&quot;nofollow&quot; target=&quot;_NEW&quot;&gt;\nhttp://www.pohrani.com/f/39/rn/38bFtB9x/screens.jpg&lt;/a&gt;\n\n\n\n","torrent":{"xt":"urn:btih:b505a0f8d24a001ca6bbc4bb8194ed58e1e5f84f","amp;dn":"True.Blood.S05E11.HDTV.DivX-Atilla82","amp;tr":["udp%3A%2F%2Ftracker.openbittorrent.com%3A80","udp%3A%2F%2Fopen.demonii.com%3A1337","udp%3A%2F%2Ftracker.coppersurfer.tk%3A6969","udp%3A%2F%2Fexodus.desync.com%3A6969"],"infoHash":"b505a0f8d24a001ca6bbc4bb8194ed58e1e5f84f","infoHashBuffer":{"type":"Buffer","data":[181,5,160,248,210,74,0,28,166,187,196,187,129,148,237,88,225,229,248,79]},"announce":[],"urlList":[]}}